<svg width="64" height="70" viewBox="0 0 172 100" fill="none" xmlns="http://www.w3.org/2000/svg">
<path d="M169.416 123.486C168.589 121.296 167.622 119.177 166.702 117.213C165.287 114.193 163.804 111.167 162.369 108.242L162.256 108.01C149.463 81.883 135.734 55.3972 121.447 29.2915L120.841 28.1826C119.383 25.5173 117.877 22.7607 116.331 20.0523C114.497 16.6241 112.273 13.3947 109.696 10.4214C106.795 7.15708 103.169 4.53259 99.0754 2.73281C94.9792 0.932235 90.5146 -0.000547139 85.9953 2.40772e-07C81.476 0.000547621 77.0117 0.934411 72.916 2.73598C68.823 4.53673 65.1984 7.1621 62.2977 10.4271C59.7243 13.401 57.5009 16.6296 55.6663 20.0561C54.1075 22.7892 52.5864 25.5711 51.1157 28.2618L50.5526 29.2915C36.2659 55.3997 22.5361 81.8843 9.74433 108.01L9.55755 108.39C8.14796 111.267 6.69067 114.243 5.29854 117.212C4.37807 119.174 3.41326 121.291 2.58484 123.487C0.212871 129.468 -0.543102 135.911 0.385125 142.237C1.37041 148.63 4.11167 154.67 8.33676 159.756C12.5656 164.845 18.1302 168.805 24.4799 171.244C29.2785 173.075 34.4079 174.011 39.5843 174C41.2102 174 42.8355 173.91 44.4507 173.732C50.9969 172.946 57.3112 170.937 63.0246 167.822C70.5174 163.852 77.9167 158.034 86.0001 149.72C94.0834 158.034 101.483 163.852 108.975 167.822C114.689 170.937 121.003 172.946 127.549 173.732C129.165 173.91 130.79 174 132.416 174C137.593 174.011 142.722 173.075 147.52 171.244C153.87 168.805 159.434 164.845 163.663 159.755C167.889 154.67 170.63 148.63 171.616 142.237C172.543 135.911 171.787 129.467 169.416 123.486V123.486ZM86.0001 132.549C75.9938 120.587 69.5727 109.477 67.3193 100.164C66.3962 96.6742 66.1783 93.0518 66.6769 89.4861C67.071 86.8715 68.0891 84.3754 69.6547 82.1859C71.5827 79.8287 74.0588 77.9204 76.8921 76.6082C79.7271 75.2955 82.8434 74.6131 86.0015 74.6134C89.1597 74.6136 92.2759 75.2964 95.1107 76.6094C97.9436 77.922 100.419 79.8305 102.347 82.1879C103.912 84.3779 104.93 86.8743 105.324 89.4893C105.823 93.0564 105.604 96.6801 104.68 100.171C102.423 109.483 96.0043 120.589 86.0001 132.549ZM159.928 140.662C159.239 145.132 157.322 149.355 154.368 152.911C151.411 156.47 147.52 159.239 143.08 160.945C138.589 162.642 133.716 163.243 128.912 162.692C123.92 162.086 119.108 160.536 114.766 158.135C108.097 154.601 101.346 149.176 93.7494 141.218C105.843 127.153 113.394 114.19 116.19 102.643C117.448 97.7884 117.721 92.7525 116.994 87.8017C116.334 83.5362 114.656 79.4677 112.085 75.9035C109.071 72.0557 105.142 68.929 100.613 66.7752C96.0808 64.6203 91.0764 63.4976 86.0012 63.4974C80.926 63.4972 75.9215 64.6194 71.3895 66.7739C66.8604 68.9271 62.9309 72.0534 59.9172 75.901C57.3467 79.4642 55.6678 83.5315 55.0072 87.796C54.2797 92.7447 54.551 97.7785 55.8067 102.632C58.6017 114.184 66.1536 127.15 78.2513 141.219C70.6544 149.176 63.9034 154.601 57.2344 158.136C52.8918 160.537 48.0804 162.086 43.0881 162.692C38.2844 163.243 33.4111 162.642 28.919 160.945C24.4791 159.239 20.5883 156.47 17.6315 152.911C14.6778 149.355 12.7616 145.132 12.073 140.662C11.4112 136.119 11.9743 131.492 13.7104 127.208C14.3709 125.458 15.1428 123.741 16.0996 121.701C17.4534 118.815 18.8899 115.881 20.2793 113.044L20.4661 112.663C33.1867 86.6839 46.8405 60.3463 61.0493 34.3807L61.615 33.3472C63.0616 30.6996 64.5579 27.9627 66.0669 25.3183C67.5107 22.5921 69.258 20.0185 71.2793 17.6411C73.0717 15.5994 75.32 13.9562 77.8637 12.8288C81.6995 11.1284 86.0257 10.6781 90.1623 11.5487C94.299 12.4193 98.0118 14.5615 100.717 17.6386C102.74 20.0142 104.488 22.5871 105.931 25.3132C107.426 27.9342 108.909 30.6464 110.343 33.2692L110.951 34.382C125.159 60.3444 138.813 86.6814 151.535 112.665L151.649 112.899C153.063 115.784 154.525 118.765 155.901 121.702C156.859 123.745 157.632 125.463 158.29 127.207C160.026 131.491 160.589 136.118 159.928 140.662V140.662Z" fill="#FF385C"/>
</svg>
